<?xml version="1.0" encoding="utf-8"?>
<!-- Generator: Adobe Illustrator 16.0.4, SVG Export Plug-In . SVG Version: 6.00 Build 0)  -->
<!DOCTYPE svg PUBLIC "-//W3C//DTD SVG 1.1//EN" "http://www.w3.org/Graphics/SVG/1.1/DTD/svg11.dtd">
<svg version="1.1" id="Layer_1" xmlns="http://www.w3.org/2000/svg" xmlns:xlink="http://www.w3.org/1999/xlink" x="0px" y="0px"
	 width="1296px" height="72px" viewBox="0 0 1296 72" enable-background="new 0 0 1296 72" xml:space="preserve">
<pattern  width="261" height="151.333" patternUnits="userSpaceOnUse" id="Pinstripe_-_Green" viewBox="0 -151.333 261 151.333" overflow="visible">
	<g>
		<polygon fill="none" points="0,-151.333 261,-151.333 261,0 0,0 		"/>
		<polygon fill="#BDD631" points="261,0 0,0 0,-151.333 261,-151.333 		"/>
		<line fill="none" stroke="#EDF3CC" stroke-miterlimit="10" x1="9" y1="-151.333" x2="9" y2="0"/>
		<line fill="none" stroke="#EDF3CC" stroke-miterlimit="10" x1="20" y1="-151.333" x2="20" y2="0"/>
		<line fill="none" stroke="#EDF3CC" stroke-miterlimit="10" x1="43" y1="-151.333" x2="43" y2="0"/>
		<line fill="none" stroke="#EDF3CC" stroke-miterlimit="10" x1="54" y1="-151.333" x2="54" y2="0"/>
		<line fill="none" stroke="#EDF3CC" stroke-miterlimit="10" x1="76" y1="-151.333" x2="76" y2="0"/>
		<line fill="none" stroke="#EDF3CC" stroke-miterlimit="10" x1="87" y1="-151.333" x2="87" y2="0"/>
		<line fill="none" stroke="#EDF3CC" stroke-miterlimit="10" x1="109" y1="-151.333" x2="109" y2="0"/>
		<line fill="none" stroke="#EDF3CC" stroke-miterlimit="10" x1="120" y1="-151.333" x2="120" y2="0"/>
		<line fill="none" stroke="#EDF3CC" stroke-miterlimit="10" x1="142" y1="-151.333" x2="142" y2="0"/>
		<line fill="none" stroke="#EDF3CC" stroke-miterlimit="10" x1="153" y1="-151.333" x2="153" y2="0"/>
		<line fill="none" stroke="#EDF3CC" stroke-miterlimit="10" x1="175" y1="-151.333" x2="175" y2="0"/>
		<line fill="none" stroke="#EDF3CC" stroke-miterlimit="10" x1="186" y1="-151.333" x2="186" y2="0"/>
		<line fill="none" stroke="#EDF3CC" stroke-miterlimit="10" x1="208" y1="-151.333" x2="208" y2="0"/>
		<line fill="none" stroke="#EDF3CC" stroke-miterlimit="10" x1="219" y1="-151.333" x2="219" y2="0"/>
		<line fill="none" stroke="#EDF3CC" stroke-miterlimit="10" x1="241" y1="-151.333" x2="241" y2="0"/>
		<line fill="none" stroke="#EDF3CC" stroke-miterlimit="10" x1="252" y1="-151.333" x2="252" y2="0"/>
		<path fill="#EDF3CC" d="M41.974-107.01h0.01c-0.01,0.13-0.01,0.27-0.01,0.399V-107.01z"/>
		<path fill="#EDF3CC" d="M219.193-107.01v0.399c0-0.13,0-0.27-0.01-0.399H219.193z"/>
	</g>
</pattern>
<rect x="0.119" y="0.11" fill="url(#Pinstripe_-_Green)" width="1296" height="72"/>
</svg>
